<?xml version="1.0" encoding="utf-8"?>
<!-- Generator: Adobe Illustrator 26.2.1, SVG Export Plug-In . SVG Version: 6.00 Build 0)  -->
<svg version="1.1" id="Layer_1" xmlns="http://www.w3.org/2000/svg" xmlns:xlink="http://www.w3.org/1999/xlink" x="0px" y="0px"
	 viewBox="0 0 2143 2500" style="enable-background:new 0 0 2143 2500;" xml:space="preserve">
<style type="text/css">
	.st0{fill:#FFFFFF;}
</style>
<path class="st0" d="M1947.3,7H194.2C52.9,7,0.1,59.8,0.1,201.9V1917c0,16.3,0.8,31.1,2.3,45c3.1,31.1,3.9,61.3,32.6,95.5
	c3.1,3.1,32.6,25.6,32.6,25.6c15.5,7.8,26.4,13.2,44.3,21l862.6,361.8c45,20.2,63.7,28.7,96.3,28c32.6,0.8,51.2-7,96.3-28
	l862.6-361.8c17.9-7,28.7-13.2,44.3-21c0,0,29.5-21.7,32.6-25.6c28.7-34.2,29.5-64.4,32.6-95.5c1.6-14,2.3-28.7,2.3-45V201.9
	C2141.4,59.8,2089.4,7,1947.3,7"/>
<path d="M1829.3,1731.4l-0.8,3.9l-0.8,4.7l-0.8,3.9l-1.6,3.9l-0.8,3.9l-1.6,3.9l-1.6,3.9l-1.6,3.1l-1.6,3.9l-2.3,3.1l-2.3,3.1
	l-2.3,3.1l-2.3,3.1l-2.3,3.1l-3.1,3.1l-2.3,2.3l-3.1,3.1l-3.1,2.3l-3.1,2.3l-3.1,1.6l-3.1,2.3l-3.9,2.3l-3.9,1.6l-3.9,2.3l-3.9,1.6
	l-3.9,1.6l-3.9,1.6v-0.8l-3.9,1.6l-3.9,0.8l-7,1.6l-3.9,0.8l-3.9,0.8l-3.9,0.8l-3.9,0.8l-4.7,0.8l-3.9,0.8h-15.5l-3.9-0.8h-4.7
	l-3.9-0.8l-3.9-0.8l-4.7-0.8l-3.9-0.8l-3.9-0.8l-3.9-0.8l-3.9-0.8l-3.9-0.8l-3.9-0.8l-3.9-1.6l-3.9-0.8l-3.9-1.6l-3.9-1.6l-3.9-1.6
	l-3.9-1.6l-3.9-1.6l-3.9-1.6l-3.9-1.6l-3.9-1.6l-3.9-1.6l-3.9-1.6l-3.9-2.3l-3.1-2.3l-3.9-2.3l-3.1-2.3l-3.1-2.3l-3.1-2.3l-3.1-2.3
	l-3.1-2.3l-3.1-2.3l-3.1-2.3l-3.1-3.1l2.3-3.1l3.1-3.1l2.3-3.1l3.1-3.1l2.3-3.1l2.3-3.1l3.1-3.1l2.3-3.1l3.1-3.1l2.3-3.1l3.1-3.1
	l2.3-3.1l2.3-3.1l3.1-3.1l2.3-3.1l3.1-3.1l2.3-3.1l3.1,2.3l3.9,2.3l3.1,2.3l3.9,2.3l3.1,2.3l3.9,2.3l3.1,2.3l3.9,1.6l3.1,2.3
	l3.9,1.6l3.9,1.6l3.9,1.6l3.9,1.6l3.9,1.6l3.9,1.6l3.9,1.6l3.9,1.6l3.9,0.8l7.8,1.6l4.7,0.8l3.9,0.8h3.9l4.7,0.8h8.5l4.7-0.8
	l3.9-0.8l3.9-0.8l3.9-0.8l3.1-1.6l3.1-1.6l3.1-2.3l2.3-3.1l1.6-3.1l1.6-3.9l0.8-3.9v-0.8l-0.8-4.7l-1.6-3.9l-2.3-3.1l-3.1-2.3
	l-3.1-2.3l-3.1-1.6l-3.9-1.6l-3.9-1.6l-4.7-2.3l-3.1-0.8l-3.1-0.8l-3.9-1.6l-3.9-0.8l-3.9-1.6l-3.9-0.8l-4.7-1.6l-3.9-0.8l-4.7-1.6
	l-3.9-0.8l-3.9-1.6l-3.9-0.8l-3.9-1.6l-3.9-1.6l-3.9-0.8l-3.9-1.6l-3.9-1.6l-3.9-1.6l-4.7-1.6l-3.9-1.6l-3.9-1.6l-3.9-1.6l-3.9-2.3
	l-3.9-2.3l-3.1-2.3l-3.9-2.3l-3.1-2.3l-3.1-2.3l-3.1-2.3l-3.1-3.1l-3.1-3.1l-2.3-3.1l-2.3-3.1l-2.3-3.1l-2.3-3.1l-2.3-3.9l-1.6-3.1
	l-1.6-3.1l-0.8-3.9l-1.6-3.1l-0.8-3.9l-0.8-3.9l-0.8-3.9l-0.8-3.9l-0.8-4.7v-9.3l0.8-3.9l0.8-3.9l0.8-3.9l0.8-3.9l0.8-3.9l1.6-3.9
	l0.8-3.9l1.6-3.9l1.6-3.9l1.6-3.9l2.3-3.9l2.3-3.9l2.3-3.1l2.3-3.1l3.1-3.1l3.1-3.1l3.1-3.1l3.1-3.1l3.1-2.3l3.1-2.3l3.1-2.3
	l3.1-2.3l3.9-2.3l3.9-1.6l3.9-2.3l3.9-1.6l3.9-1.6l3.9-1.6l3.9-1.6l3.1-0.8l3.9-0.8l3.9-0.8l3.9-0.8l3.9-0.8l3.9-0.8l3.9-0.8
	l3.9-0.8l3.9-0.8h17.1l4.7,0.8l4.7,0.8h3.9l4.7,0.8l3.9,0.8l4.7,0.8l3.9,0.8l3.9,0.8l3.9,0.8l3.9,0.8l3.9,0.8l3.9,1.6l3.9,1.6
	l3.9,0.8l3.9,1.6l3.9,1.6l3.9,1.6l3.9,1.6l3.9,1.6l3.9,2.3l3.1,1.6l3.9,2.3l3.9,2.3l3.1,2.3l3.9,2.3l3.1,2.3l3.1,2.3l3.1,2.3
	l3.1,2.3l-2.3,3.1l-2.3,3.1l-2.3,3.1l-2.3,3.1l-2.3,3.9l-2.3,3.1l-2.3,3.1l-2.3,3.1l-2.3,3.1l-2.3,3.1l-2.3,3.1l-2.3,3.1l-2.3,3.9
	l-2.3,3.1l-2.3,3.1l-7.8,17.1l-2.3,3.1l-3.1-2.3l-3.9-2.3l-3.1-2.3l-3.1-2.3l-3.9-1.6l-3.1-2.3l-3.9-1.6l-3.1-1.6l-3.9-1.6l-3.1-1.6
	l-3.9-1.6l-3.1-1.6l-4.7-1.6l-3.9-1.6l-3.9-1.6l-3.9-0.8l-2.3,1.6l-3.9-0.8l-3.9-0.8l-3.9-0.8l-3.9-0.8h-8.5l-4.7,0.8l-3.9,0.8
	l-3.9,0.8l-3.1,1.6l-3.1,1.6l-3.9,3.1l-2.3,3.9l-1.6,3.9l-0.8,3.9v0.8l0.8,5.4l1.6,4.7l1.6,2.3l3.1,3.1l3.9,2.3l3.1,2.3l3.9,1.6
	l4.7,1.6l4.7,1.6l3.1,0.8l3.1,1.6l3.9,0.8l3.9,1.6l3.9,0.8l4.7,1.6l4.7,1.6l4.7,1.6l4.7,0.8l3.9,1.6l4.7,1.6l3.9,0.8l3.9,1.6
	l3.9,1.6l3.9,1.6l3.9,1.6l3.9,1.6l3.9,0.8l4.7,1.6l3.9,2.3l3.9,1.6l3.9,2.3l3.9,2.3l3.9,2.3l3.1,2.3l3.1,2.3l3.1,2.3l3.1,3.1
	l3.1,3.1l3.1,3.1l3.1,3.1l2.3,3.1l2.3,3.9l2.3,3.1l2.3,3.9l1.6,3.1l1.6,3.9l0.8,3.9l0.8,3.9l1.6,7.8l0.8,3.9l0.8,4.7v9.3
	L1829.3,1731.4L1829.3,1731.4z M1553.6,1810.6h-225.9v-288h227.5v65.2H1403v47.4h136.6v61.3H1403v48.9h154.5v65.2H1553.6
	L1553.6,1810.6z M1265.6,1810.6h-72.2v-170l-2.3,3.1l-2.3,3.9l-2.3,3.1l-2.3,3.1l-2.3,3.9l-2.3,3.1l-2.3,3.1l-2.3,3.9l-2.3,3.1
	l-2.3,3.1l-2.3,3.1l-2.3,3.9l-2.3,3.1l-2.3,3.1l-2.3,3.9l-2.3,3.1l-2.3,3.1l-2.3,3.9l-1.6,3.1l-2.3,3.1l-2.3,3.9l-2.3,3.1l-2.3,3.1
	l-2.3,3.9l-2.3,3.1l-1.6,3.1l-2.3,3.1l-2.3,3.9l-2.3,3.1l-2.3,3.1l-1.6,3.9l-2.3,3.1l-2.3,3.1l-2.3,3.9l-2.3,3.1h-1.6l-2.3-3.9
	l-2.3-3.1l-2.3-3.9l-2.3-3.1l-2.3-3.9l-2.3-3.1l-2.3-3.9l-2.3-3.1l-2.3-3.9l-1.6-3.1l-2.3-3.9l-2.3-3.1l-2.3-3.9l3.9-3.9l-2.3-3.9
	l-2.3-3.1l-2.3-3.9l-2.3-3.1l-2.3-3.9l-2.3-3.1l-1.6-2.3l-2.3-3.1l-2.3-3.9l-2.3-3.1l-2.3-3.9l-2.3-3.1l-2.3-3.9l-1.6-2.3l-2.3-3.9
	l-2.3-3.1l-2.3-3.9l-2.3-3.1l-2.3-3.9l-2.3-3.1v169.3H969v-288h80.7l2.3,3.1l2.3,3.9l2.3,3.1l2.3,3.9l2.3,3.1l2.3,3.9l2.3,3.1
	l2.3,3.9l2.3,3.1l2.3,3.1l2.3,3.9l2.3,3.1l2.3,3.9l2.3,3.1l2.3,3.9l2.3,3.1l2.3,3.1l2.3,3.9l2.3,3.1l2.3,3.9l2.3,3.1l2.3,3.9
	l2.3,3.1l1.6,3.9l2.3,3.1l1.6,3.1l2.3,3.9l2.3,3.1l2.3,3.9l2.3,3.1l1.6,3.9l2.3,3.1l2.3,3.9l2.3,3.1l2.3-3.1l2.3-3.9l2.3-3.1
	l2.3-3.9l2.3-3.1l2.3-3.9l2.3-3.1l2.3-3.9l2.3-3.1l1.6-3.1l2.3-3.9l2.3-3.1l2.3-3.9l2.3-3.1l2.3-3.9l2.3-3.1l2.3-3.9l2.3-3.1
	l2.3-3.1l2.3-3.9l2.3-3.1l2.3-3.9l2.3-3.1l2.3-3.9l1.6-3.1l2.3-3.1l2.3-3.9l2.3-3.1l2.3-3.9l2.3-3.1l2.3-3.9l2.3-3.1l2.3-3.9
	l2.3-3.1h80.7v288L1265.6,1810.6L1265.6,1810.6z M809.1,1691.8l-1.6-3.9l-1.6-3.9l-1.6-3.9l-1.6-3.9l-1.6-3.9l-1.6-3.9l-1.6-3.9
	l-1.6-3.9l-1.6-3.9l-1.6-3.9l-1.6-3.9l-1.6-3.9l-1.6-3.9l-1.6-3.9l-1.6-3.9l-1.6-3.9l-1.6-3.9l-1.6-3.9l-1.6-3.9l-1.6-3.9l-1.6-3.9
	l-1.6-3.9l-1.6,3.9l-1.6,3.9l-1.6,3.9l-1.6,3.9l-1.6,3.9l-1.6,3.9l-1.6,3.9l-1.6,3.9l-1.6,3.9l-1.6,3.9l-1.6,3.9l-1.6,3.9l-1.6,3.9
	l-1.6,3.9l-1.6,3.9l-1.6,3.9l-1.6,3.9l-1.6,3.9l-1.6,3.9l-1.6,3.9l-1.6,3.9l-1.6,3.9l-1.6,3.9H806L809.1,1691.8L809.1,1691.8z
	 M932.5,1810.6h-76.9l-1.6-3.9l-1.6-3.9l-1.6-3.9l-1.6-3.9l-1.6-3.9l-1.6-3.9l-1.6-3.9l-1.6-3.9l-1.6-3.9l-1.6-3.9l-1.6-3.9
	l-1.6-3.9l-1.6-3.9l-1.6-3.9l-1.6-3.9h-111l-1.6,3.9l-1.6,3.9l-1.6,3.9l-1.6,3.9l-1.6,3.9l-3.1,7l-1.6,3.9l-1.6,3.9l-1.6,3.9
	l-1.6,3.9l-1.6,3.9l-1.6,3.9l-1.6,3.9l-1.6,3.9h-77.6l1.6-3.9l3.1-7l1.6-3.9l1.6-3.9l3.1-7l1.6-3.9l1.6-3.9l1.6-3.9l1.6-2.3l1.6-3.9
	l1.6-3.9l1.6-3.9l1.6-3.9l1.6-3.9l1.6-3.9l1.6-3.9l1.6-3.9l1.6-3.9l1.6-3.9l1.6-3.9l3.1-7l1.6-3.9l1.6-3.9l1.6-3.9l1.6-3.9l1.6-3.9
	l1.6-3.9l1.6-3.9l1.6-3.9l1.6-3.9l1.6-3.9l1.6-3.9l1.6-3.9l1.6-3.9l1.6-3.9l1.6-3.9l1.6-3.9l1.6-3.9l1.6-3.9l1.6-3.9l1.6-3.9
	l1.6-3.9l1.6-3.9l1.6-3.9l1.6-3.9l1.6-3.9l1.6-3.9l1.6-3.9l1.6-3.9l1.6-3.9l1.6-3.9l1.6-3.9l1.6-3.9l3.1-7l1.6-3.9l1.6-3.9l1.6-3.9
	l1.6-3.9l1.6-3.9l1.6-3.9l1.6-3.9l1.6-3.9l1.6-3.9l1.6-3.9l0.8-3.9l1.6-3.9l1.6-3.9l1.6-3.9l1.6-3.9l1.6-3.9l1.6-3.9l1.6-3.9
	l1.6-3.9l3.1-7l1.6-3.9h73l1.6,3.9l1.6,3.9l1.6,3.9l1.6,3.9l1.6,3.9l1.6,3.9l1.6,3.9l1.6,3.9l1.6,3.9l1.6,3.9l1.6,3.9l1.6,3.9
	l1.6,3.9l1.6,3.9l1.6,3.9l1.6,3.9l1.6,3.9l1.6,3.9l1.6,3.9l1.6,3.9l1.6,3.9l1.6,3.9l1.6,3.9l1.6,3.9l1.6,3.9l1.6,3.9l1.6,3.9
	l1.6,3.9l1.6,3.9l1.6,3.9l3.1,7l1.6,3.9l1.6,3.9l1.6,3.9l1.6,3.9l1.6,3.9l1.6,3.9l1.6,3.9l1.6,3.9l1.6,3.9l1.6,3.9l1.6,3.9l1.6,3.9
	l1.6,3.9l1.6,3.9l1.6,3.9l1.6,3.9l1.6,3.9l1.6,3.9l1.6,3.9l1.6,3.9l1.6,3.9l1.6,3.9l1.6,3.9l1.6,3.9l1.6,3.9l1.6,3.9l1.6,3.9
	l1.6,3.9l1.6,3.9l1.6,3.9l1.6,3.9l1.6,3.9l1.6,3.9l1.6,3.9l1.6,3.9l1.6,3.9l1.6,3.9l1.6,3.9l1.6,3.9l1.6,3.9l1.6,3.9l1.6,3.9
	l1.6,3.9l1.6,3.9l1.6,3.9l1.6,3.9l3.1,7L932.5,1810.6L932.5,1810.6z M587.8,1773.3l-3.1,2.3l-3.1,2.3l-3.1,2.3l-3.1,2.3l-3.1,2.3
	l-3.1,2.3l-3.1,2.3l-3.9,2.3l-3.9,2.3l-3.9,2.3l-3.9,1.6l-3.9,2.3l-3.9,1.6l-3.9,1.6l-3.9,1.6l-3.9,1.6l-3.9,1.6l-3.9,1.6l-3.9,1.6
	l-3.9,1.6l-3.9,1.6l-3.9,0.8l-3.9,0.8l-3.9,0.8l-3.9,0.8l-3.9,0.8l-4.7,0.8l-3.9,0.8l-4.7,0.8l-3.9,0.8l-4.7,0.8h-12.4l-3.9-0.8
	l-4.7-0.8l-3.9-0.8l-3.9-0.8l-3.9-0.8l-3.9-0.8l-3.9-0.8l-3.9-0.8l-3.9-0.8l-3.9-0.8l-3.9-0.8l-3.9-1.6l-3.9-1.6l-3.9-1.6l-3.9-1.6
	l-3.9-1.6l-3.9-1.6l-3.9-1.6l-3.9-2.3l-3.1-1.6l-3.9-2.3l-3.1-2.3l-3.1-2.3l-3.1-2.3l-3.1-2.3l-3.1-2.3l-3.1-2.3l-3.1-2.3l-3.1-3.1
	l-3.1-2.3l-3.1-3.1l-3.1-3.1l-2.3-3.1l-2.3-3.1l-2.3-3.1l-2.3-3.1l-2.3-3.1l-2.3-3.1l-1.6-3.1l-2.3-3.9l-2.3-3.1l-1.6-3.9l-1.6-3.9
	l-1.6-3.9l-1.6-3.9l-1.6-3.1l-1.6-3.9l-0.8-3.9l-1.6-3.9l-0.8-3.9l-1.6-3.9l-0.8-3.9v-3.9l-0.8-3.9v-3.9l-0.8-3.9v-33.4l0.8-4.7
	l0.8-3.9l0.8-3.9l0.8-3.9l1.6-3.9l0.8-3.9l1.6-3.9l1.6-3.9l1.6-3.9l1.6-3.9l1.6-3.9l1.6-3.9l1.6-3.9l1.6-3.9l2.3-3.9l2.3-3.1
	l1.6-3.1l2.3-3.1l2.3-3.1l2.3-3.1l2.3-3.1l2.3-3.1l2.3-3.1l3.1-3.1l2.3-3.1l3.1-3.1l3.1-3.1l3.1-2.3l3.1-3.1l3.1-2.3l3.1-2.3
	l3.1-2.3l3.1-2.3l3.1-2.3l3.1-2.3l3.9-2.3l3.9-2.3l3.9-2.3l3.9-1.6l3.9-1.6l3.9-2.3l3.1-1.6l3.9-1.6l3.9-1.6l3.9-0.8l3.9-1.6
	l3.9-0.8l3.9-1.6l3.9-0.8l3.9-0.8l3.9-0.8l3.9-0.8l3.9-0.8l3.9-0.8l3.9-0.8h16.3l4.7,0.8l4.7,0.8h3.9l3.9,0.8l4.7,0.8l3.9,0.8
	l3.9,0.8l3.9,0.8l3.9,0.8l3.9,0.8l3.9,0.8l3.9,1.6l3.9,0.8l3.1,1.6l3.9,1.6l7,3.1l3.9,1.6l3.9,2.3l3.9,1.6l3.1,2.3l3.9,2.3l3.1,2.3
	l3.9,2.3l3.1,2.3l3.1,2.3l3.1,2.3l3.1,2.3l3.1,3.1l3.1,2.3l-2.3,3.1l-3.1,3.1l-2.3,3.1l-3.1,3.1l-2.3,3.1l-2.3,3.1l-3.1,3.1
	l-2.3,3.1l-2.3,3.1l-3.1,3.1l-2.3,3.1l-3.1,3.1l-2.3,3.1l-2.3,3.1l-3.1,3.1l-2.3,3.1l-3.1,3.1l-2.3,3.1l-3.1-2.3l-3.1-3.1l-3.1-2.3
	l-3.1-2.3l-3.1-2.3l-3.1-2.3l-3.1-2.3l-3.9-2.3l-3.1-1.6l-3.1-1.6l-3.1-1.6l-3.9-1.6l-3.9-1.6l-3.9-0.8l-3.9-0.8l-3.9-0.8l-3.9-0.8
	l-4.7-0.8l-4.7-0.8h-8.5l-3.9,0.8l-3.9,0.8l-3.9,0.8l-3.9,0.8l-3.9,1.6l-3.9,1.6l-3.1,9.3l-3.9,1.6l-3.1,2.3l-3.1,2.3l-3.1,2.3
	l-3.1,2.3l-3.1,2.3l-3.1,2.3l-2.3,3.1l-3.1,3.1l-2.3,3.1l-2.3,3.1l-2.3,3.1l-1.6,3.9l-2.3,3.1l-1.6,3.9l-1.6,3.9l-1.6,3.9l-1.6,3.9
	l-0.8,3.9l-0.8,3.9l-0.8,4.7v28.7l0.8,3.9l0.8,3.9l0.8,3.9l1.6,3.9l4.7-1.6l1.6,3.9l1.6,3.9l2.3,3.9l3.9,6.2l2.3,3.1l2.3,3.1
	l3.1,3.1l2.3,3.1l3.1,2.3l3.1,2.3l3.1,2.3l3.1,2.3l3.1,2.3l3.9,1.6l3.9,1.6l3.9,1.6l3.9,1.6l3.9,1.6l3.9,0.8l3.9,0.8l3.9,0.8
	l4.7,0.8h7l4.7-0.8l4.7-0.8l3.9-0.8l3.9-0.8l3.9-0.8l3.9-0.8l3.9-0.8l3.9-1.6l3.1-1.6l3.9-1.6l3.1-1.6l3.1-2.3v-38.8H462v-57.5
	h128.1v128.9L587.8,1773.3L587.8,1773.3z M461.3,871.1h170.8v-132H461.3V469.7H639v-132H316v952.6h325.3v-132h-180V871.1
	 M1683.3,899.8v215.1c0,38-17.9,55.9-54.3,55.9h-27.2c-38,0-55.9-17.9-55.9-55.9V513.2c0-38,17.9-55.9,55.9-55.9h24.1
	c36.5,0,54.3,17.9,54.3,55.9v186.3h142.1V504.7c0-118-56.7-175.5-174.7-175.5h-70.7c-118,0-176.2,58.2-176.2,177v614.9
	c0,118.8,58.2,177,176.2,177h71.4c118,0,176.2-58.2,176.2-177v-222h-141.3 M1180.2,337.7h145.2v952.6h-145.2V337.7z M969.8,760.9
	c0,38-17.9,55.9-54.3,55.9h-59.8v-351h59.8c36.5,0,54.3,17.9,54.3,55.9V760.9z M938.7,337.7H711.3v952.6h145.2V944.9h82.3
	c118,0,176.2-58.2,176.2-177V514.8C1115,396,1056.7,337.7,938.7,337.7L938.7,337.7z M657.7,2151.4h830l-423.1,139.8L657.7,2151.4"/>
</svg>
