<svg width="21" height="17" viewBox="0 0 21 17" fill="none" xmlns="http://www.w3.org/2000/svg">
<path fill-rule="evenodd" clip-rule="evenodd" d="M20.0746 12.6554C19.6789 13.1529 18.7096 13.5078 18.7096 13.5078L11.4985 16.0893V14.1855L16.8054 12.3009C17.4076 12.0859 17.5001 11.7819 17.0106 11.6223C16.522 11.4623 15.6373 11.5082 15.0346 11.7241L11.4985 12.9653V10.9896L11.7023 10.9208C11.7023 10.9208 12.7241 10.5604 14.1609 10.4017C15.5977 10.244 17.357 10.4233 18.7381 10.9451C20.2945 11.4352 20.4698 12.1579 20.0746 12.6554ZM12.1849 9.4136V4.54496C12.1849 3.97317 12.0791 3.44678 11.5408 3.29776C11.1286 3.16617 10.8728 3.54766 10.8728 4.11898V16.3112L7.57367 15.2676V0.730469C8.97641 0.989996 11.02 1.6035 12.1187 1.97262C14.9127 2.92865 15.8599 4.11853 15.8599 6.79953C15.8599 9.41268 14.2414 10.4031 12.1849 9.4136ZM1.52011 13.9865C-0.0777047 13.5381 -0.343623 12.6036 0.384662 12.0653C1.05774 11.5682 2.20239 11.1941 2.20239 11.1941L6.93279 9.51768V11.4288L3.52876 12.643C2.92745 12.8581 2.83498 13.1625 3.32357 13.3221C3.81262 13.4817 4.69779 13.4363 5.30002 13.2207L6.93279 12.6302V14.34C6.82928 14.3584 6.7138 14.3767 6.60707 14.3946C4.97383 14.6605 3.23432 14.5496 1.52011 13.9865Z" fill="white"/>
</svg>
