<?xml version="1.0" encoding="utf-8"?>
<!-- Generator: Adobe Illustrator 26.2.1, SVG Export Plug-In . SVG Version: 6.00 Build 0)  -->
<svg version="1.1" id="Calque_1" xmlns="http://www.w3.org/2000/svg" xmlns:xlink="http://www.w3.org/1999/xlink" x="0px" y="0px"
	 viewBox="0 0 30 30" style="enable-background:new 0 0 30 30;" xml:space="preserve">
<style type="text/css">
	.st0{fill:#FFFFFF;}
</style>
<g>
	<path class="st0" d="M29.6,5.1c0,0.8-0.6,1.4-1.4,1.4c-0.7,0-1.4-0.5-1.4-1.4c0-0.8,0.6-1.4,1.4-1.4C29,3.7,29.6,4.2,29.6,5.1z
		 M27.1,5.1c0,0.7,0.5,1.2,1.1,1.2s1.1-0.5,1.1-1.2s-0.5-1.2-1.1-1.2S27.1,4.3,27.1,5.1z M28.3,4.3c0.4,0,0.5,0.2,0.5,0.4
		S28.6,5,28.5,5.1l0.3,0.6h-0.2l-0.3-0.5H28v0.5h-0.2V4.3L28.3,4.3L28.3,4.3z M28,5h0.2c0.2,0,0.3-0.1,0.3-0.2
		c0-0.1-0.1-0.2-0.2-0.2h-0.2L28,5L28,5z"/>
	<g>
		<path class="st0" d="M14.3,1C6.9,1,0.9,6.7,0.4,13.9L7.9,17c0.6-0.4,1.4-0.7,2.2-0.7c0.1,0,0.2,0,0.2,0l3.4-4.9c0,0,0,0,0-0.1
			c0-2.9,2.4-5.3,5.3-5.3s5.3,2.4,5.3,5.3s-2.4,5.3-5.3,5.3c0,0-0.1,0-0.1,0l-4.8,3.4c0,0.1,0,0.1,0,0.2c0,2.2-1.8,4-4,4
			c-1.9,0-3.5-1.4-3.9-3.2l-5.4-2.2C2.5,24.7,7.9,29,14.3,29c7.8,0,14-6.3,14-14S22.1,1,14.3,1z"/>
		<path class="st0" d="M9.1,22.3l-1.7-0.7c0.3,0.6,0.8,1.2,1.5,1.4c1.5,0.6,3.3-0.1,3.9-1.6c0.3-0.7,0.3-1.5,0-2.3
			c-0.3-0.7-0.9-1.3-1.6-1.6c-0.7-0.3-1.5-0.3-2.2,0l1.8,0.7c1.1,0.5,1.7,1.8,1.2,2.9C11.6,22.2,10.3,22.7,9.1,22.3z"/>
		<path class="st0" d="M22.5,11.4c0-1.9-1.6-3.5-3.5-3.5c-1.9,0-3.5,1.6-3.5,3.5c0,1.9,1.6,3.5,3.5,3.5
			C20.9,14.9,22.5,13.3,22.5,11.4z M16.3,11.4c0-1.5,1.2-2.6,2.6-2.6c1.5,0,2.6,1.2,2.6,2.6c0,1.5-1.2,2.6-2.6,2.6
			C17.5,14,16.3,12.8,16.3,11.4z"/>
	</g>
</g>
</svg>
