<?xml version="1.0" encoding="utf-8"?>
<!-- Generator: Adobe Illustrator 26.2.1, SVG Export Plug-In . SVG Version: 6.00 Build 0)  -->
<svg version="1.1" id="Calque_1" xmlns="http://www.w3.org/2000/svg" xmlns:xlink="http://www.w3.org/1999/xlink" x="0px" y="0px"
	 viewBox="0 0 30 30" style="enable-background:new 0 0 30 30;" xml:space="preserve">
<style type="text/css">
	.st0{fill:#FFFFFF;}
</style>
<g id="NINTENDO_SWITCH_LOGO">
	<path class="st0" d="M17.6,29.3H22c4.1,0,7.3-3.3,7.3-7.3V8C29.3,4,26,0.7,22,0.7h-4.4c-0.1,0-0.2,0.1-0.2,0.2v28.2
		C17.4,29.2,17.5,29.3,17.6,29.3z M23,13.5c1.6,0,2.9,1.3,2.9,2.9c0,1.6-1.3,2.9-2.9,2.9c-1.6,0-2.9-1.3-2.9-2.9
		C20.1,14.8,21.4,13.5,23,13.5z M14.3,0.7H8C4,0.7,0.7,4,0.7,8v14C0.7,26,4,29.3,8,29.3h6.3c0.1,0,0.2-0.1,0.2-0.2V0.9
		C14.5,0.8,14.4,0.7,14.3,0.7z M12.2,27H8c-1.4,0-2.6-0.5-3.6-1.5C3.5,24.6,3,23.3,3,22V8c0-1.4,0.5-2.6,1.5-3.6C5.4,3.5,6.7,3,8,3
		h4.2V27z M5.1,9.3c0,1.5,1.2,2.7,2.7,2.7s2.7-1.2,2.7-2.7S9.3,6.6,7.8,6.6C6.3,6.6,5.1,7.8,5.1,9.3z"/>
</g>
</svg>
