<?xml version="1.0" encoding="utf-8"?>
<!-- Generator: Adobe Illustrator 26.2.1, SVG Export Plug-In . SVG Version: 6.00 Build 0)  -->
<svg version="1.1" id="Calque_1" xmlns="http://www.w3.org/2000/svg" xmlns:xlink="http://www.w3.org/1999/xlink" x="0px" y="0px"
	 viewBox="0 0 30 30" style="enable-background:new 0 0 30 30;" xml:space="preserve">
<style type="text/css">
	.st0{fill:#FFFFFF;}
</style>
<g>
	<path class="st0" d="M13.3,1.1C12.1,1.2,11,1.5,10,1.9c-0.8,0.2-1.5,0.6-2.1,1C7.8,2.9,8,3,8.4,3c1.9,0.4,3.8,1.2,5.5,2.3
		c0.4,0.2,0.6,0.4,1,0.5c0.4-0.1,0.7-0.3,1-0.5c1.3-0.8,2.6-1.4,4-1.9c0.4-0.1,0.9-0.3,1.4-0.4c0.4-0.1,0.7-0.1,0.7-0.2
		c0-0.2-2.1-1.1-3.4-1.4C16.9,0.9,15,0.8,13.3,1.1z M4.9,5.1c-2.3,2.2-3.6,5.2-4,8.3c-0.2,1.5-0.1,3.1,0.2,4.6
		c0.4,1.6,1,3.3,1.9,4.7c0.6,0.9,0.6,0.9,0.7-0.1c0.3-3.4,2.9-8.2,7.4-13c0.3-0.3,0.5-0.6,0.7-0.9c-0.7-0.9-1.4-1.6-2.2-2.3
		c-1-0.9-2.2-1.7-3.5-2.1C5.8,4.2,5.5,4.4,4.9,5.1z M23.3,4.5c-1.5,0.8-2.9,1.9-4,3c-0.4,0.4-0.7,0.7-1,1.1c0.3,0.4,0.6,0.8,0.9,1.2
		c3.7,4.2,6.2,8.3,6.9,11.6c0.1,0.4,0.1,0.9,0.1,1.3c0,0.5,0,0.6,0.1,0.6c0.6-0.6,1.1-1.4,1.5-2.3c1-2,1.4-4.2,1.3-6.5
		c0-2.7-0.9-5.3-2.4-7.5c-0.7-1.1-1.6-1.9-2.6-2.7C23.8,4.3,23.6,4.4,23.3,4.5z M14,12.2c-2.3,2-4.4,4.2-6.4,6.6
		c-1.6,2.1-3.4,4.9-3.4,5.4C4.7,24.9,5.3,25.5,6,26c3.1,2.4,7.2,3.5,11.1,2.9c3.1-0.5,5.9-1.9,8.2-4.1c0.4-0.4,0.4-0.4,0.4-0.7
		c0-1.6-3.1-5.6-8.3-10.6c-0.7-0.8-1.5-1.4-2.3-2.1C14.6,11.6,14.3,11.9,14,12.2z"/>
</g>
</svg>
